<?xml version="1.0" standalone="no"?><!DOCTYPE svg PUBLIC "-//W3C//DTD SVG 1.1//EN" "http://www.w3.org/Graphics/SVG/1.1/DTD/svg11.dtd"><svg t="1553835243631" class="icon" style="" viewBox="0 0 1024 1024" version="1.1" xmlns="http://www.w3.org/2000/svg" p-id="3642" xmlns:xlink="http://www.w3.org/1999/xlink" width="16" height="16"><defs><style type="text/css"></style></defs><path d="M512.06144 567.8592c105.8816 0 191.99488-86.13888 191.99488-191.99488s-86.1184-191.99488-192-191.99488c-105.87648 0-191.99488 86.1184-191.99488 191.99488s86.1184 191.99488 192 191.99488zM512 0C300.22144 0 128.01024 170.10176 128.01024 384.03072c0 223.98464 192.03584 453.15072 332.01664 614.20544 0.512 0.63488 22.97856 25.76384 50.74944 25.76384h2.4576c27.7504 0 50.23744-25.12896 50.74944-25.76384 140.0576-161.0496 332.0576-390.17472 332.0576-614.20544C896.03072 170.12224 723.77856 0 511.97952 0H512z m3.74784 956.23168c-0.67584 0.63488-2.62144 2.048-4.32128 3.13344-0.32768-0.86016-2.68288-2.74432-4.13696-4.25984-117.28896-134.9376-315.28448-362.67008-315.28448-571.08992 0-176.45056 143.58528-320.03584 319.99488-320.03584 176.512 0 320.05632 143.58528 320.05632 320.05632 0 208.37888-198.016 436.11136-316.30848 572.18048v0.01536z" fill="#707070" p-id="3643"></path></svg>