<?xml version="1.0" standalone="no"?><!DOCTYPE svg PUBLIC "-//W3C//DTD SVG 1.1//EN" "http://www.w3.org/Graphics/SVG/1.1/DTD/svg11.dtd"><svg t="1554100786608" class="icon" style="" viewBox="0 0 1024 1024" version="1.1" xmlns="http://www.w3.org/2000/svg" p-id="21856" xmlns:xlink="http://www.w3.org/1999/xlink" width="32" height="32"><defs><style type="text/css"></style></defs><path d="M513.044796 63.515592c-247.114121 0-447.439612 200.325491-447.439612 447.439612S265.930675 958.394816 513.044796 958.394816s447.439612-200.325491 447.439612-447.439612S760.157893 63.515592 513.044796 63.515592zM513.044796 939.513794c-236.68663 0-428.558589-191.872982-428.558589-428.558589S276.358165 82.395592 513.044796 82.395592s428.558589 191.872982 428.558589 428.558589S749.731426 939.513794 513.044796 939.513794z" p-id="21857" fill="#379e65"></path><path d="M717.981305 672.133094l-0.036839-102.81055c0-31.875988-34.257222-34.195823-34.257222-34.195823l0-87.116103c0.255827-69.457932-35.275411-98.428753-70.021773-101.269451-7.795547-48.681746-50.082652-85.999676-100.929714-85.999676-50.333362 0-92.2838 36.569894-100.685143 84.537372-80.691787 17.969257-69.848834 104.005772-69.848834 104.005772l0.080841 85.548398c-38.149878 0.599657-35.789111 37.226856-35.789111 37.226856l0 99.54211c-0.028653 31.102369 35.789111 33.600259 35.789111 33.600259 0.010233 60.913325 67.76743 56.368822 67.76743 56.368822l205.809389 0c71.909773 0.078795 67.641563-55.589063 67.641563-55.589063C722.311937 698.328709 717.981305 672.133094 717.981305 672.133094L717.981305 672.133094zM512.734734 299.005978c28.913517 0 53.403281 19.286252 61.288878 45.669132L451.446879 344.67511C459.334523 318.29223 483.821217 299.005978 512.734734 299.005978L512.734734 299.005978zM611.419314 620.708887l-10.386558 0 0 16.297175c0 9.05626-7.343245 16.398482-16.398482 16.398482-9.058306 0-16.401552-7.342222-16.401552-16.398482l0-16.297175L412.988985 620.708887c-9.058306 0-16.400528-7.342222-16.400528-16.398482 0-9.05933 7.342222-16.401552 16.400528-16.401552L611.419314 587.908854c9.05626 0 16.398482 7.342222 16.398482 16.401552C627.818819 613.366665 620.476597 620.708887 611.419314 620.708887L611.419314 620.708887zM611.419314 620.708887" p-id="21858" fill="#379e65"></path></svg>